<?xml version="1.0" encoding="UTF-8" standalone="no"?>
<!-- Created with Inkscape (http://www.inkscape.org/) -->

<svg
   width="148.93993mm"
   height="48.190697mm"
   viewBox="0 0 148.93993 48.190689"
   version="1.1"
   id="svg1"
   xml:space="preserve"
   inkscape:version="1.3.2 (091e20e, 2023-11-25)"
   inkscape:export-filename="base3_4.png"
   inkscape:export-xdpi="300"
   inkscape:export-ydpi="300"
   sodipodi:docname="natalyx_base3.svg"
   xmlns:inkscape="http://www.inkscape.org/namespaces/inkscape"
   xmlns:sodipodi="http://sodipodi.sourceforge.net/DTD/sodipodi-0.dtd"
   xmlns="http://www.w3.org/2000/svg"
   xmlns:svg="http://www.w3.org/2000/svg"><sodipodi:namedview
     id="namedview1"
     pagecolor="#ffffff"
     bordercolor="#000000"
     borderopacity="0.25"
     inkscape:showpageshadow="2"
     inkscape:pageopacity="0.0"
     inkscape:pagecheckerboard="0"
     inkscape:deskcolor="#d1d1d1"
     inkscape:document-units="mm"
     inkscape:zoom="1.338045"
     inkscape:cx="306.04351"
     inkscape:cy="43.720502"
     inkscape:window-width="1920"
     inkscape:window-height="1080"
     inkscape:window-x="1265"
     inkscape:window-y="0"
     inkscape:window-maximized="0"
     inkscape:current-layer="g3" /><defs
     id="defs1" /><g
     inkscape:label="Layer 1"
     inkscape:groupmode="layer"
     id="layer1"
     transform="translate(-81.349208,-52.557538)"><g
       id="g3"
       transform="matrix(0.92528972,0,0,0.92523722,11.639422,5.7326508)"
       style="stroke-width:1.08077"><text
         xml:space="preserve"
         style="font-style:normal;font-variant:normal;font-weight:900;font-stretch:normal;font-size:43.3754px;line-height:0;font-family:'Avenir Next';-inkscape-font-specification:'Avenir Next,  weight=275';font-variant-ligatures:normal;font-variant-caps:normal;font-variant-numeric:normal;font-variant-east-asian:normal;text-align:end;letter-spacing:-2.1891px;word-spacing:-0.414551px;text-orientation:upright;text-anchor:end;fill:#00a8e8;fill-opacity:1;stroke-width:0;stroke-linecap:round;stroke-linejoin:round;stroke-dasharray:none;stroke-dashoffset:0"
         x="194.35886"
         y="90.251389"
         id="text1"><tspan
           sodipodi:role="line"
           id="tspan1"
           style="font-style:normal;font-variant:normal;font-weight:300;font-stretch:normal;font-size:43.3754px;font-family:'Avenir Next';-inkscape-font-specification:'Avenir Next, Light';font-variant-ligatures:normal;font-variant-caps:normal;font-variant-numeric:normal;font-variant-east-asian:normal;letter-spacing:-2.1891px;fill:#00a8e8;fill-opacity:1;stroke-width:0;stroke-dasharray:none;stroke-dashoffset:0"
           x="192.16975"
           y="90.251389">natalyx</tspan></text><path
         style="fill:none;fill-opacity:1;stroke:#00a8e8;stroke-width:0.108077;stroke-dasharray:none;stroke-opacity:1"
         d="m 224.62029,70.647361 c -0.35368,-0.06299 -0.84047,-0.240241 -1.13838,-0.414504 -0.1419,-0.08301 -0.43532,-0.325582 -0.65205,-0.53906 -0.32537,-0.320496 -0.42582,-0.455141 -0.5764,-0.772599 -0.25664,-0.541063 -0.35209,-0.963949 -0.34835,-1.543361 0.002,-0.262458 0.0283,-0.608284 0.059,-0.768506 0.13983,-0.728615 0.48725,-1.726315 0.9826,-2.821813 0.29984,-0.663129 1.46685,-2.999854 1.82665,-3.657532 0.16381,-0.299426 0.29783,-0.549953 0.29783,-0.556728 0,-0.02622 -0.70213,-0.01033 -1.37351,0.03103 -0.3867,0.02383 -1.35002,0.0663 -2.14072,0.09437 l -1.43764,0.05102 -0.38794,0.182571 c -0.21336,0.100416 -0.66519,0.271979 -1.00406,0.381256 -0.71999,0.232179 -1.15688,0.48044 -1.73619,0.986603 -0.49937,0.43633 -1.41218,1.374655 -2.42496,2.492781 -3.38808,3.74048 -5.44181,5.226937 -8.09302,5.857595 -1.67139,0.397581 -3.17734,0.410715 -4.8658,0.04244 -2.07596,-0.452791 -4.07161,-1.404285 -5.99638,-2.858968 -0.76829,-0.580658 -1.83267,-1.547309 -2.26893,-2.060602 -0.2476,-0.291324 -0.20048,-0.333808 0.26713,-0.240845 0.54622,0.108595 1.76149,0.283672 2.77767,0.400168 0.83247,0.09544 1.10957,0.104639 3.14912,0.104639 1.57259,0 2.32438,-0.01652 2.53298,-0.05567 0.16317,-0.03061 0.53285,-0.08804 0.82151,-0.127624 0.50349,-0.06903 1.34744,-0.257105 1.40329,-0.312719 0.0352,-0.03502 0.0631,-0.01707 -0.52816,-0.338631 -1.24793,-0.678608 -2.34664,-1.506891 -3.40896,-2.569924 -2.08974,-2.091119 -3.32379,-4.567784 -3.74331,-7.512577 -0.0954,-0.669651 -0.13832,-1.512633 -0.077,-1.512633 0.0271,0 0.67203,0.319233 1.43318,0.709408 0.76115,0.390174 2.19515,1.11417 3.18667,1.60888 2.48361,1.239183 3.03225,1.560739 4.03908,2.367319 0.62122,0.497658 1.29773,1.174697 1.67566,1.676981 0.14106,0.18747 0.48178,0.712166 0.75718,1.165991 0.68164,1.123304 1.0687,1.653633 1.52064,2.083476 0.62391,0.593417 1.23554,0.849117 2.0481,0.856253 0.74547,0.0065 1.37695,-0.23257 2.16787,-0.820883 0.87893,-0.653777 2.31255,-2.175488 3.37705,-3.584552 0.2095,-0.277326 0.47867,-0.589904 0.59813,-0.694619 0.33432,-0.293031 0.80124,-0.50368 1.18807,-0.535972 0.71453,-0.05965 1.27079,0.213527 1.68161,0.825845 l 0.12195,0.181755 0.64695,0.07895 c 0.6015,0.0734 2.28536,0.25197 3.33621,0.353782 0.2491,0.02414 0.46118,0.03566 0.47128,0.0256 0.0102,-0.01008 -0.0751,-0.104065 -0.18934,-0.208917 -0.37768,-0.346678 -0.62125,-0.811505 -0.70548,-1.346393 -0.0573,-0.363641 -0.029,-0.441177 0.14825,-0.406327 0.18415,0.03621 0.56891,0.30068 0.79889,0.549117 0.20971,0.22656 0.38831,0.55653 0.46468,0.858557 0.0293,0.115969 0.0704,0.22138 0.0913,0.234244 0.0209,0.01286 0.0917,-0.08969 0.15739,-0.227901 0.17407,-0.3664 0.5228,-0.724967 0.85884,-0.883063 0.31233,-0.146947 0.79498,-0.26126 0.85321,-0.202081 0.0437,0.04448 -0.0735,0.395035 -0.2501,0.747478 -0.16047,0.32033 -0.42796,0.588717 -0.8231,0.825913 l -0.31973,0.191914 0.27339,0.03499 c 0.15037,0.01924 0.62092,0.07067 1.04568,0.114285 0.49694,0.05102 0.7788,0.09872 0.79052,0.133759 0.0278,0.08289 -0.108,0.09869 -1.23531,0.143949 -0.57293,0.02301 -1.05361,0.05368 -1.06816,0.06819 -0.0366,0.03643 0.31957,0.786685 1.04762,2.206893 0.57055,1.11293 0.71993,1.354244 0.71993,1.162916 0,-0.134788 0.17351,-0.415013 0.36194,-0.584527 0.29915,-0.26912 0.61031,-0.219011 0.92687,0.149267 0.1642,0.191022 0.2636,0.443639 0.26197,0.665792 -0.003,0.351451 -0.51674,1.361457 -0.66435,1.30505 -0.0891,-0.03403 -0.0814,-0.105367 0.0234,-0.216663 0.12346,-0.13123 0.39996,-0.70154 0.438,-0.903428 0.0545,-0.289133 -0.014,-0.56499 -0.18781,-0.756549 -0.0863,-0.09512 -0.21769,-0.198013 -0.29198,-0.228658 -0.11566,-0.04771 -0.15653,-0.04325 -0.28413,0.03095 -0.082,0.04767 -0.21093,0.17445 -0.28658,0.281733 -0.12065,0.171085 -0.13722,0.232262 -0.1349,0.497738 0.003,0.317212 0.0769,0.521691 0.35327,0.974175 0.1078,0.176504 0.12208,0.229591 0.0765,0.284313 -0.0459,0.05508 -0.0358,0.08319 0.0559,0.155016 0.0616,0.04825 0.18052,0.216852 0.26425,0.37467 0.24975,0.470715 0.52567,0.825702 0.73123,0.940744 0.15704,0.0879 0.23897,0.103057 0.47578,0.08804 0.1727,-0.01097 0.33625,-0.05088 0.4127,-0.10076 0.11709,-0.0764 0.12468,-0.09917 0.10056,-0.301935 -0.0483,-0.405852 -0.28206,-0.718204 -0.64746,-0.865036 -0.0752,-0.03021 -0.33728,-0.06741 -0.58242,-0.08266 -0.24869,-0.01546 -0.44549,-0.0478 -0.44523,-0.07316 3.4e-4,-0.02586 0.17498,-0.05104 0.4054,-0.05844 0.32021,-0.01034 0.45749,0.0066 0.65612,0.0806 0.45812,0.170682 0.76484,0.584497 0.77541,1.046147 0.003,0.153812 -0.0195,0.252432 -0.0722,0.310516 -0.0881,0.09697 -0.47991,0.234539 -0.66792,0.234539 -0.35703,0 -0.73064,-0.257322 -1.01611,-0.699859 -0.079,-0.122464 -0.15033,-0.20267 -0.15852,-0.178228 -0.008,0.02445 0.0392,0.257578 0.10533,0.518075 0.17748,0.699324 0.20634,1.680141 0.0662,2.248111 -0.38035,1.541052 -1.62614,2.575383 -3.17337,2.63472 -0.25102,0.0096 -0.56687,-0.0022 -0.7019,-0.02622 z m 1.41821,-0.241041 c 0.94508,-0.274558 1.58515,-0.7973 2.01095,-1.642348 0.39208,-0.778114 0.48549,-1.52391 0.31306,-2.499589 -0.10996,-0.622256 -0.20933,-1.01667 -0.27177,-1.078845 -0.0269,-0.02672 -0.0711,0.04158 -0.11797,0.182152 -0.0875,0.262216 -0.33121,0.564182 -0.54097,0.670172 -0.32918,0.166334 -0.89672,0.117131 -1.13599,-0.09848 -0.12098,-0.109028 -0.10995,-0.453952 0.0241,-0.755981 0.19688,-0.443284 0.6783,-0.714177 1.26922,-0.714177 0.17557,0 0.31237,-0.01642 0.304,-0.03652 -0.008,-0.02008 -0.56625,-1.135853 -1.23974,-2.479493 -0.94597,-1.887267 -1.24167,-2.439693 -1.29995,-2.428517 -0.0949,0.0182 -0.25085,0.299082 -1.16842,2.104079 -1.55336,3.055704 -2.05425,4.382648 -2.1101,5.58999 -0.0315,0.680121 0.0443,1.075079 0.30945,1.613372 0.34726,0.705002 1.09322,1.331941 1.86522,1.567628 0.51221,0.156377 1.26362,0.159129 1.78882,0.0065 z m -21.18271,-0.645311 c 1.35142,-0.127846 2.42438,-0.415498 3.53419,-0.947491 1.868,-0.895428 3.38554,-2.192989 6.32983,-5.412299 2.28381,-2.497134 2.96167,-3.023089 4.30313,-3.338851 0.12495,-0.02941 0.39193,-0.142192 0.59331,-0.250623 l 0.36614,-0.197147 1.59737,-0.07291 c 3.4919,-0.159385 3.55546,-0.16365 3.61693,-0.242793 0.11712,-0.150806 0.066,-0.178401 -0.38794,-0.209245 -0.24474,-0.01663 -0.60928,-0.05074 -0.8101,-0.07579 -0.46951,-0.05859 -1.82771,-0.20951 -2.64708,-0.294151 -1.18578,-0.12249 -1.10248,-0.101271 -1.22704,-0.312553 -0.17152,-0.290914 -0.41006,-0.507962 -0.73135,-0.665472 -0.25821,-0.126572 -0.34188,-0.144702 -0.6743,-0.146081 -0.29817,-0.0013 -0.43331,0.02118 -0.63053,0.104613 -0.5171,0.218749 -0.71998,0.393311 -1.18776,1.021963 -1.12583,1.513006 -2.76145,3.216302 -3.67283,3.824792 -1.2466,0.832295 -2.61147,0.909887 -3.67397,0.208862 -0.68551,-0.452286 -1.18829,-1.082666 -2.16763,-2.717694 -0.59811,-0.998566 -1.12008,-1.63061 -1.93992,-2.34899 -1.01452,-0.888977 -1.72204,-1.304131 -5.15725,-3.02612 -1.46844,-0.7361 -2.86632,-1.448588 -3.10637,-1.583307 -0.24007,-0.134718 -0.46314,-0.244943 -0.49571,-0.244943 -0.0416,0 -0.0517,0.04401 -0.0339,0.147703 0.014,0.08124 0.0386,0.331763 0.0548,0.556726 0.11094,1.540543 0.6143,3.297276 1.34235,4.684789 1.3473,2.56768 3.22429,4.437568 5.97045,5.947877 0.3078,0.169277 0.57197,0.327664 0.58706,0.351973 0.0506,0.08159 -0.0553,0.128659 -0.6024,0.267678 -2.06145,0.523798 -5.37295,0.591089 -8.59963,0.174751 -0.76359,-0.09853 -1.66535,-0.246236 -1.78673,-0.292668 -0.21963,-0.08402 -0.0645,0.121379 0.51003,0.675005 1.54073,1.48486 3.24672,2.633843 5.08759,3.426494 1.25818,0.541754 2.67897,0.897973 4.01627,1.006961 0.69728,0.05683 0.81608,0.05529 1.62305,-0.02105 z m 22.36546,-3.816521 c 0.10948,-0.03846 0.2573,-0.125385 0.32848,-0.19315 0.18433,-0.175495 0.48677,-0.854173 0.48775,-1.094522 1.8e-4,-0.04966 -0.0828,-0.05842 -0.40718,-0.04297 -0.33798,0.0161 -0.45273,0.0424 -0.67318,0.154285 -0.31644,0.160619 -0.53452,0.448234 -0.58276,0.7686 -0.0389,0.257929 0.005,0.319711 0.28865,0.406686 0.27471,0.08424 0.32128,0.08433 0.55824,0.001 z m -0.87217,-6.611155 c 0.35506,-0.0014 0.20764,-0.07408 -0.22318,-0.109972 -0.19102,-0.01591 -0.42433,-0.04029 -0.51846,-0.05418 -0.14718,-0.02172 -0.17115,-0.01303 -0.17115,0.06206 0,0.140823 0.0518,0.159315 0.36512,0.130444 0.16316,-0.01503 0.40961,-0.02779 0.54767,-0.02835 z m -0.40012,-0.530984 c 0.46744,-0.244596 0.78042,-0.548861 0.97148,-0.944431 0.19909,-0.41217 0.20067,-0.452675 0.0163,-0.415947 -0.53312,0.10617 -0.99797,0.49482 -1.29211,1.080285 -0.25771,0.512963 -0.21526,0.552012 0.30439,0.280093 z m -0.69522,0.02707 c 0,-0.278684 -0.26712,-0.924631 -0.50867,-1.230093 -0.15897,-0.201028 -0.61245,-0.509847 -0.6997,-0.476506 -0.0529,0.02022 -0.0523,0.06863 0.004,0.310375 0.12737,0.543668 0.39349,0.954841 0.85115,1.315085 0.25171,0.198117 0.35284,0.221375 0.35284,0.08114 z"
         id="path1" /></g></g></svg>
