<?xml version="1.0" encoding="UTF-8" standalone="no"?>
<!-- Created with Inkscape (http://www.inkscape.org/) -->

<svg
   width="122.02093mm"
   height="122.02093mm"
   viewBox="-8 -8 122.02093 122.02091"
   version="1.1"
   id="svg1"
   xml:space="preserve"
   sodipodi:docname="natalyx_combined_icon.svg"
   inkscape:version="1.3.2 (091e20e, 2023-11-25)"
   inkscape:export-filename="natalyx_combined_icon2.png"
   inkscape:export-xdpi="300"
   inkscape:export-ydpi="300"
   xmlns:inkscape="http://www.inkscape.org/namespaces/inkscape"
   xmlns:sodipodi="http://sodipodi.sourceforge.net/DTD/sodipodi-0.dtd"
   xmlns="http://www.w3.org/2000/svg"
   xmlns:svg="http://www.w3.org/2000/svg"><sodipodi:namedview
     id="namedview1"
     pagecolor="#ffffff"
     bordercolor="#000000"
     borderopacity="0.25"
     inkscape:showpageshadow="2"
     inkscape:pageopacity="0.0"
     inkscape:pagecheckerboard="0"
     inkscape:deskcolor="#d1d1d1"
     inkscape:document-units="mm"
     inkscape:zoom="0.8487621"
     inkscape:cx="205.59353"
     inkscape:cy="249.18643"
     inkscape:window-width="1472"
     inkscape:window-height="926"
     inkscape:window-x="209"
     inkscape:window-y="36"
     inkscape:window-maximized="0"
     inkscape:current-layer="layer1" /><defs
     id="defs1" /><g
     id="layer1"
     transform="translate(-85.866808,-0.72798231)"><g
       id="g3"
       transform="matrix(0.92528972,0,0,0.92523722,11.639422,5.7326508)"
       style="stroke-width:1.08077"><rect
         style="display:inline;fill:none;fill-opacity:1;fill-rule:evenodd;stroke-width:1.40501;stroke-linecap:round;stroke-linejoin:round"
         id="rect1"
         width="114.58133"
         height="114.58783"
         x="80.220695"
         y="-5.4090652"
         transform="translate(1.3959592e-6)" /><g
         id="g1"
         transform="matrix(0.92065204,0,0,0.92065204,10.91138,8.1300163)"
         style="stroke-width:1.17392"><text
           xml:space="preserve"
           style="font-style:normal;font-variant:normal;font-weight:bold;font-stretch:normal;font-size:34.7143px;line-height:0;font-family:'Avenir Next';-inkscape-font-specification:'Avenir Next, Bold';font-variant-ligatures:normal;font-variant-caps:normal;font-variant-numeric:normal;font-variant-east-asian:normal;text-align:end;letter-spacing:-1.75198px;word-spacing:-0.331774px;text-orientation:upright;text-anchor:end;fill:#f49858;fill-opacity:1;stroke-width:0;stroke-linecap:round;stroke-linejoin:round;stroke-dasharray:none;stroke-dashoffset:0"
           x="194.79196"
           y="83.703598"
           id="text1"><tspan
             id="tspan1"
             style="font-style:normal;font-variant:normal;font-weight:bold;font-stretch:normal;font-size:34.7143px;font-family:'Avenir Next';-inkscape-font-specification:'Avenir Next, Bold';font-variant-ligatures:normal;font-variant-caps:normal;font-variant-numeric:normal;font-variant-east-asian:normal;letter-spacing:-1.75198px;fill:#f49858;fill-opacity:1;stroke-width:0;stroke-dasharray:none;stroke-dashoffset:0"
             x="193.03998"
             y="83.703598">natalyx</tspan></text><path
           style="fill:#f49858;fill-opacity:1;stroke:#f49858;stroke-width:0.117392;stroke-dasharray:none;stroke-opacity:1"
           d="m 176.23,57.316575 c -1.06126,-0.1894 -2.52194,-0.72234 -3.41585,-1.24631 -0.42579,-0.24959 -1.30624,-0.97894 -1.95656,-1.62081 -0.97631,-0.96365 -1.27773,-1.36849 -1.72956,-2.32301 -0.77009,-1.626832 -1.05649,-2.89834 -1.04527,-4.640482 0.006,-0.789143 0.0849,-1.828952 0.17703,-2.310698 0.41958,-2.190756 1.46206,-5.190581 2.94842,-8.484461 0.89971,-1.993856 4.40147,-9.019783 5.48109,-10.997249 0.49153,-0.900297 0.89368,-1.653566 0.89368,-1.673937 0,-0.07884 -2.10683,-0.03106 -4.12139,0.0933 -1.16034,0.07166 -4.0509,0.199346 -6.4235,0.283746 l -4.31382,0.153404 -1.16406,0.548943 c -0.64021,0.301925 -1.99599,0.81777 -3.01281,1.146338 -2.16042,0.698102 -3.47137,1.444559 -5.20965,2.96646 -1.49843,1.311931 -4.23743,4.133231 -7.2764,7.495146 -10.16637,11.246654 -16.32884,15.71604 -24.28412,17.61227 -5.01524,1.19542 -9.53403,1.23491 -14.60047,0.12761 -6.22917,-1.36143 -12.217366,-4.222325 -17.99288,-8.59618 -2.305351,-1.745888 -5.499157,-4.652357 -6.80821,-6.195695 -0.742954,-0.875937 -0.601566,-1.003675 0.801557,-0.724159 1.639002,0.326517 5.285572,0.852928 8.334748,1.203201 2.497929,0.286964 3.329399,0.314623 9.449325,0.314623 4.71876,0 6.97459,-0.04967 7.60053,-0.167386 0.48961,-0.09203 1.59888,-0.264713 2.46504,-0.383733 1.51079,-0.207554 4.04317,-0.773048 4.21075,-0.940264 0.10562,-0.105296 0.18934,-0.05133 -1.58481,-1.018175 -3.74457,-2.040399 -7.04139,-4.530831 -10.22902,-7.727096 -6.270526,-6.287452 -9.97344,-13.734142 -11.232262,-22.5883709 -0.286261,-2.013467 -0.415047,-4.548095 -0.231049,-4.548095 0.08132,0 2.016515,0.959851 4.300445,2.133006 2.28392,1.173152 6.586816,3.35002 9.561996,4.8374849 7.45238,3.725901 9.09864,4.692738 12.11977,7.117914 1.86405,1.496328 3.89401,3.53201 5.02803,5.042247 0.42327,0.563673 1.44564,2.141299 2.27201,3.505833 2.04535,3.377484 3.20677,4.972045 4.56288,6.264472 1.87212,1.784251 3.70739,2.553075 6.14557,2.574531 2.23688,0.01954 4.13172,-0.699278 6.50498,-2.468183 2.63733,-1.965737 6.9391,-6.541128 10.13325,-10.777818 0.62864,-0.833848 1.43632,-1.773688 1.79477,-2.088539 1.00317,-0.881069 2.40422,-1.514436 3.56496,-1.611529 2.14403,-0.179352 3.81317,0.64202 5.04588,2.483102 l 0.36592,0.54649 1.94126,0.237382 c 1.80488,0.220695 6.85751,0.757609 10.01071,1.063731 0.74746,0.07259 1.38384,0.10722 1.41415,0.07697 0.0306,-0.03031 -0.22535,-0.312897 -0.56814,-0.628159 -1.13329,-1.042371 -1.86414,-2.439985 -2.11689,-4.048255 -0.17193,-1.093374 -0.087,-1.326505 0.44484,-1.22172 0.55257,0.108874 1.70709,0.904067 2.39717,1.651053 0.62927,0.681207 1.16518,1.673341 1.39434,2.581458 0.088,0.348689 0.21123,0.665633 0.27395,0.704311 0.0627,0.03866 0.27516,-0.269674 0.47227,-0.685239 0.52232,-1.10167 1.56873,-2.179788 2.57706,-2.655142 0.93719,-0.441831 2.38543,-0.785541 2.56016,-0.607605 0.13113,0.13374 -0.22055,1.187768 -0.75045,2.247473 -0.48151,0.963149 -1.28415,1.770119 -2.46982,2.483306 l -0.95939,0.577036 0.82034,0.105205 c 0.4512,0.05785 1.86315,0.212487 3.1377,0.343625 1.49113,0.153405 2.33689,0.296826 2.37205,0.402179 0.0835,0.249229 -0.32407,0.296735 -3.7067,0.432817 -1.71915,0.06919 -3.1615,0.161403 -3.20515,0.205031 -0.10983,0.109535 0.95891,2.365357 3.14351,6.635555 1.71201,3.346292 2.16025,4.07186 2.16025,3.496587 0,-0.405273 0.52063,-1.247838 1.08604,-1.757522 0.89764,-0.809173 1.83132,-0.658509 2.78119,0.448807 0.4927,0.574354 0.79097,1.333908 0.78607,2.001864 -0.009,1.056723 -1.55054,4.093548 -1.99346,3.923948 -0.26736,-0.10232 -0.24425,-0.316812 0.0702,-0.65145 0.37046,-0.394575 1.20013,-2.109349 1.31428,-2.716374 0.16353,-0.869348 -0.042,-1.698778 -0.56355,-2.274747 -0.25895,-0.286001 -0.6532,-0.595373 -0.87612,-0.687515 -0.34706,-0.143451 -0.46969,-0.130041 -0.85257,0.09306 -0.24605,0.143331 -0.63292,0.524525 -0.85992,0.847098 -0.36203,0.514408 -0.41174,0.698351 -0.40479,1.496569 0.009,0.953774 0.23076,1.568589 1.06004,2.929091 0.32346,0.530703 0.36631,0.690321 0.22955,0.854856 -0.13773,0.165612 -0.10743,0.250131 0.16773,0.466093 0.18484,0.145075 0.54168,0.652017 0.79292,1.126535 0.74941,1.415318 1.57734,2.482672 2.19414,2.828573 0.47122,0.264293 0.71707,0.309866 1.42764,0.264714 0.51821,-0.03298 1.00896,-0.152982 1.23836,-0.302958 0.35134,-0.229716 0.37411,-0.29818 0.30174,-0.907842 -0.14493,-1.220291 -0.84636,-2.159452 -1.94278,-2.600939 -0.22565,-0.09083 -1.01206,-0.202684 -1.74762,-0.248536 -0.74623,-0.04649 -1.33676,-0.143723 -1.33597,-0.219974 0.001,-0.07775 0.52504,-0.153463 1.21645,-0.175714 0.96083,-0.03109 1.37275,0.01985 1.96877,0.242344 1.37465,0.513196 2.29499,1.757431 2.32671,3.145493 0.009,0.462472 -0.0585,0.758997 -0.21664,0.933641 -0.26436,0.291564 -1.44004,0.705197 -2.00418,0.705197 -1.07132,0 -2.19237,-0.7737 -3.04897,-2.104294 -0.23705,-0.368217 -0.45108,-0.609376 -0.47566,-0.535885 -0.024,0.07352 0.11763,0.77447 0.31606,1.557717 0.53255,2.102686 0.61915,5.051749 0.19864,6.759487 -1.14128,4.633543 -4.87943,7.743513 -9.52209,7.921923 -0.75322,0.0289 -1.70097,-0.007 -2.10615,-0.0788 z m 4.25551,-0.72475 c 2.83584,-0.82552 4.75645,-2.39727 6.03412,-4.93811 1.17648,-2.339591 1.45677,-4.582005 0.93937,-7.515619 -0.32994,-1.870962 -0.62813,-3.056864 -0.81548,-3.243807 -0.0807,-0.08034 -0.21335,0.12502 -0.35398,0.547683 -0.26255,0.788416 -0.99384,1.696349 -1.62326,2.015034 -0.98773,0.500123 -2.69071,0.352183 -3.40868,-0.296104 -0.36301,-0.327819 -0.32991,-1.364916 0.0723,-2.273039 0.59077,-1.33284 2.03533,-2.147345 3.80846,-2.147345 0.52682,0 0.9373,-0.04937 0.91219,-0.109806 -0.024,-0.06038 -1.69911,-3.415216 -3.72,-7.455193 -2.8385,-5.674523 -3.72579,-7.335524 -3.90066,-7.30192 -0.28476,0.05472 -0.75271,0.899261 -3.50599,6.326419 -4.66106,9.18771 -6.16404,13.177487 -6.33163,16.807651 -0.0945,2.044948 0.13293,3.232484 0.92855,4.850996 1.042,2.11975 3.28035,4.0048 5.59682,4.71345 1.53696,0.47018 3.79166,0.47846 5.36759,0.0195 z m -63.56139,-1.94028 c 4.05511,-0.3844 7.27467,-1.2493 10.60479,-2.84886 5.60517,-2.692321 10.15874,-6.59375 18.99346,-16.273381 6.85285,-7.508234 8.88686,-9.089645 12.91208,-10.03906 0.37492,-0.08843 1.17603,-0.427534 1.7803,-0.753558 l 1.09865,-0.59277 4.79311,-0.219222 c 10.47788,-0.479228 10.6686,-0.492053 10.85305,-0.730015 0.35143,-0.453434 0.19804,-0.536405 -1.16407,-0.629146 -0.73437,-0.05 -1.82821,-0.152561 -2.43081,-0.22788 -1.40882,-0.176165 -5.48427,-0.629942 -7.94289,-0.884435 -3.55808,-0.368296 -3.30813,-0.304496 -3.68189,-0.939767 -0.51466,-0.874702 -1.23043,-1.52731 -2.19451,-2.000902 -0.77478,-0.380569 -1.02585,-0.43508 -2.02332,-0.439228 -0.8947,-0.0039 -1.3002,0.06369 -1.89197,0.314545 -1.55163,0.657722 -2.1604,1.182584 -3.56403,3.072778 -3.3782,4.549217 -8.28608,9.670585 -11.02079,11.500158 -3.74058,2.502495 -7.83604,2.735794 -11.02421,0.627994 -2.05696,-1.359907 -3.56562,-3.255296 -6.50425,-8.171402 -1.7947,-3.002429 -3.36094,-4.902821 -5.82097,-7.062804 -3.0442,-2.672923 -5.16721,-3.921184 -15.47499,-9.0987569 -4.406226,-2.213262 -8.600746,-4.355529 -9.321046,-4.760594 -0.720361,-0.405062 -1.38971,-0.73648 -1.48744,-0.73648 -0.124827,0 -0.155133,0.132326 -0.101726,0.444104 0.04201,0.244268 0.115824,0.997526 0.164434,1.673931 0.33289,4.6320139 1.843292,9.9140539 4.027892,14.0859449 4.042736,7.720349 9.674886,13.342617 17.915086,17.883724 0.92359,0.508973 1.71626,0.985201 1.76155,1.058293 0.15182,0.245319 -0.16594,0.386843 -1.80758,0.804838 -6.18564,1.574925 -16.122206,1.777251 -25.804273,0.52543 -2.291248,-0.296253 -4.997092,-0.740368 -5.361308,-0.879976 -0.659027,-0.252627 -0.19354,0.364955 1.53041,2.029565 4.623154,4.464589 9.742195,7.919282 15.265951,10.302582 3.77533,1.62891 8.03859,2.69997 12.05132,3.02767 2.09228,0.17087 2.44876,0.16624 4.87017,-0.0633 z m 67.11039,-11.47529 c 0.32851,-0.11564 0.77206,-0.377001 0.98565,-0.580753 0.5531,-0.527667 1.4606,-2.568276 1.46354,-3.290943 5.5e-4,-0.149316 -0.24844,-0.175654 -1.22179,-0.1292 -1.01415,0.04841 -1.35847,0.127486 -2.01996,0.463894 -0.94952,0.482941 -1.6039,1.347724 -1.74865,2.310982 -0.11672,0.775525 0.015,0.961287 0.86614,1.222799 0.8243,0.253288 0.96404,0.253558 1.67507,0.003 z m -2.61706,-19.87803 c 1.0654,-0.0042 0.62305,-0.222739 -0.66968,-0.330657 -0.57318,-0.04783 -1.27326,-0.121142 -1.55571,-0.162906 -0.44163,-0.0653 -0.51355,-0.03917 -0.51355,0.186599 0,0.423419 0.15543,0.47902 1.09558,0.392212 0.48959,-0.04519 1.22909,-0.08356 1.64336,-0.08524 z m -1.20061,-1.596531 c 1.40261,-0.735436 2.34175,-1.650283 2.91505,-2.839659 0.59739,-1.239288 0.60213,-1.361077 0.0489,-1.250645 -1.59968,0.319226 -2.99453,1.487795 -3.87713,3.248137 -0.77329,1.542347 -0.64591,1.659757 0.91337,0.842167 z m -2.08609,0.08139 c 0,-0.837931 -0.80153,-2.780126 -1.52634,-3.698571 -0.477,-0.60444 -1.83772,-1.532978 -2.09953,-1.43273 -0.15873,0.0608 -0.15694,0.206352 0.0119,0.933217 0.38219,1.634669 1.18072,2.870959 2.55398,3.95412 0.75529,0.595686 1.05874,0.665617 1.05874,0.243967 z"
           id="path1" /></g></g></g></svg>
