<?xml version="1.0" encoding="UTF-8" standalone="no"?>
<!-- Created with Inkscape (http://www.inkscape.org/) -->

<svg
   width="225mm"
   height="158.57143mm"
   viewBox="0 0 225 158.5714"
   version="1.1"
   id="svg1"
   xml:space="preserve"
   inkscape:version="1.3.2 (091e20e, 2023-11-25)"
   sodipodi:docname="stork_icon.svg"
   xmlns:inkscape="http://www.inkscape.org/namespaces/inkscape"
   xmlns:sodipodi="http://sodipodi.sourceforge.net/DTD/sodipodi-0.dtd"
   xmlns="http://www.w3.org/2000/svg"
   xmlns:svg="http://www.w3.org/2000/svg"><sodipodi:namedview
     id="namedview1"
     pagecolor="#ffffff"
     bordercolor="#000000"
     borderopacity="0.25"
     inkscape:showpageshadow="2"
     inkscape:pageopacity="0.0"
     inkscape:pagecheckerboard="0"
     inkscape:deskcolor="#d1d1d1"
     inkscape:document-units="mm"
     inkscape:zoom="0.82157729"
     inkscape:cx="517.90624"
     inkscape:cy="306.11849"
     inkscape:window-width="1920"
     inkscape:window-height="1022"
     inkscape:window-x="1265"
     inkscape:window-y="30"
     inkscape:window-maximized="0"
     inkscape:current-layer="layer1" /><defs
     id="defs1" /><g
     inkscape:label="Layer 1"
     inkscape:groupmode="layer"
     id="layer1"><path
       style="fill:#000000"
       d="m 187.04288,128.27896 c -2.05041,-0.36673 -4.87247,-1.39864 -6.59952,-2.41316 -0.82264,-0.48324 -2.52368,-1.89547 -3.78009,-3.13829 -1.88626,-1.86586 -2.46862,-2.64974 -3.34156,-4.49791 -1.4878,-3.14996 -2.04115,-5.61191 -2.01949,-8.98513 0.01,-1.52797 0.1637,-3.5413 0.34196,-4.47408 0.81068,-4.24184 2.82474,-10.050237 5.69638,-16.427995 1.73827,-3.860598 8.50375,-17.464522 10.5896,-21.293396 0.94963,-1.74319 1.7266,-3.201706 1.7266,-3.241146 0,-0.152669 -4.07048,-0.06033 -7.96258,0.180642 -2.24178,0.138792 -7.82643,0.386011 -12.41034,0.549375 l -8.33437,0.297025 -2.24896,1.062888 c -1.23693,0.584589 -3.8563,1.583407 -5.82083,2.219595 -4.17399,1.351695 -6.7067,2.797021 -10.0651,5.743792 -2.89505,2.54022 -8.18679,8.002959 -14.05816,14.512457 -19.64156,21.776283 -31.54758,30.430123 -46.917365,34.101683 -9.689432,2.31463 -18.419862,2.3911 -28.208269,0.24709 C 41.595922,120.08634 30.026594,114.54694 18.868222,106.07808 14.414207,102.69761 8.2436992,97.069973 5.7146332,94.08169 c -1.435398,-1.696029 -1.162239,-1.943357 1.548586,-1.402148 3.1666188,0.632207 10.2118638,1.651481 16.1029198,2.329691 4.826053,0.5556 6.432421,0.6092 18.25625,0.6092 9.11667,0 13.47502,-0.0962 14.684374,-0.32405 0.945886,-0.17823 3.089011,-0.51258 4.7625,-0.743 2.91884,-0.401889 7.811433,-1.49681 8.135211,-1.820588 0.203889,-0.203888 0.36612,-0.09943 -3.061905,-1.971444 C 58.908014,86.808634 52.538548,81.98654 46.379955,75.797785 34.265224,63.623724 27.111092,49.205105 24.678998,32.061127 c -0.553061,-3.898565 -0.801833,-8.806233 -0.446391,-8.806233 0.157111,0 3.89596,1.858512 8.308553,4.130025 4.412592,2.271514 12.725864,6.486469 18.473937,9.366568 14.39815,7.21426 17.578723,9.086291 23.415624,13.782038 3.601348,2.89726 7.523215,6.838841 9.714209,9.763036 0.81775,1.091407 2.79305,4.146076 4.38956,6.788154 3.95165,6.53964 6.19557,9.627102 8.81556,12.129555 3.61702,3.454755 7.16272,4.943384 11.87338,4.98493 4.32166,0.03811 7.98254,-1.353975 12.56771,-4.779013 5.09536,-3.806145 13.40644,-12.665238 19.57761,-20.868512 1.21458,-1.614531 2.77498,-3.434295 3.46755,-4.04392 1.93809,-1.705976 4.645,-2.932323 6.88749,-3.120325 4.14237,-0.347281 7.36714,1.243113 9.74876,4.807897 l 0.70695,1.058141 3.75061,0.459672 c 3.48697,0.42736 13.24877,1.466915 19.34084,2.059647 1.44411,0.140505 2.67355,0.207565 2.73209,0.149022 0.0585,-0.05854 -0.43537,-0.605866 -1.09758,-1.216273 -2.18959,-2.01829 -3.60158,-4.724409 -4.0899,-7.838419 -0.33199,-2.117042 -0.16798,-2.568435 0.85947,-2.365547 1.06754,0.210803 3.29812,1.750498 4.63131,3.196844 1.2158,1.318986 2.25115,3.239998 2.6939,4.998343 0.17001,0.675152 0.40825,1.288826 0.52943,1.363719 0.12118,0.07489 0.53177,-0.522164 0.91242,-1.326795 1.00912,-2.133099 3.0308,-4.220604 4.97891,-5.141013 1.8107,-0.855489 4.60874,-1.520996 4.94631,-1.176466 0.25369,0.258929 -0.42629,2.299805 -1.44989,4.351658 -0.93034,1.864896 -2.48097,3.427391 -4.77178,4.808293 l -1.85349,1.117283 1.58491,0.203709 c 0.8717,0.112039 3.59963,0.411443 6.06207,0.665341 2.88087,0.297042 4.51485,0.574688 4.58286,0.778721 0.16083,0.482504 -0.62611,0.574593 -7.16145,0.838041 -3.32141,0.133891 -6.10801,0.312518 -6.19244,0.39695 -0.21206,0.212055 1.85268,4.579918 6.07341,12.84807 3.30754,6.479249 4.17358,7.884125 4.17358,6.77026 0,-0.784712 1.00592,-2.416121 2.09827,-3.402994 1.73423,-1.566768 3.53811,-1.275036 5.37332,0.869001 0.95191,1.112092 1.52812,2.582768 1.51867,3.876098 -0.015,2.046076 -2.99565,7.926116 -3.85142,7.597729 -0.51624,-0.1981 -0.47165,-0.613414 0.13541,-1.261373 0.71577,-0.763989 2.3187,-4.084209 2.5392,-5.259557 0.31578,-1.683278 -0.0812,-3.289252 -1.08873,-4.404473 -0.50028,-0.553749 -1.26201,-1.152789 -1.69273,-1.331201 -0.67047,-0.277715 -0.90744,-0.251787 -1.64713,0.180213 -0.47519,0.277528 -1.22283,1.015615 -1.6614,1.640193 -0.69941,0.99602 -0.79552,1.352178 -0.78202,2.897726 0.0161,1.846745 0.44601,3.037169 2.04801,5.671447 0.6249,1.027569 0.70767,1.336627 0.44327,1.655209 -0.26615,0.320684 -0.20735,0.48435 0.3242,0.902466 0.35711,0.280907 1.04646,1.262469 1.53188,2.181251 1.44786,2.74041 3.04748,4.80707 4.23914,5.476817 0.91043,0.5117 1.38536,0.59995 2.75821,0.51253 1.00121,-0.0637 1.94935,-0.29623 2.39258,-0.58664 0.67879,-0.444767 0.72276,-0.577347 0.58295,-1.757797 -0.27983,-2.36278 -1.63516,-4.18123 -3.75348,-5.036059 -0.43591,-0.175911 -1.95531,-0.39244 -3.37643,-0.481175 -1.44171,-0.09002 -2.58266,-0.27829 -2.58115,-0.425919 0.002,-0.150557 1.01439,-0.297168 2.3502,-0.340192 1.85632,-0.05979 2.6522,0.03839 3.80374,0.469242 2.65585,0.993681 4.43398,3.402823 4.4952,6.090453 0.0204,0.89546 -0.11254,1.469607 -0.41857,1.807757 -0.51086,0.56451 -2.78213,1.36544 -3.87205,1.36544 -2.06985,0 -4.23572,-1.49808 -5.89068,-4.074437 -0.45799,-0.71298 -0.87152,-1.1799 -0.91896,-1.0376 -0.0474,0.1423 0.22734,1.49956 0.6106,3.016117 1.02891,4.07132 1.19626,9.78143 0.3836,13.08803 -2.20496,8.97169 -9.42712,14.99334 -18.39682,15.33879 -1.45521,0.056 -3.2863,-0.0127 -4.06909,-0.15266 z m 8.22169,-1.40329 c 5.4789,-1.59842 9.18952,-4.64172 11.65802,-9.56141 2.27298,-4.53002 2.81448,-8.87189 1.81486,-14.55208 -0.63752,-3.622637 -1.21349,-5.918837 -1.57547,-6.280807 -0.1556,-0.15561 -0.41212,0.24213 -0.68392,1.06045 -0.50705,1.52657 -1.92013,3.284547 -3.13615,3.901597 -1.90833,0.96836 -5.19857,0.68192 -6.58561,-0.57333 -0.7014,-0.63476 -0.63744,-2.642807 0.14018,-4.401157 1.14132,-2.580711 3.93224,-4.157788 7.35796,-4.157788 1.01782,0 1.8109,-0.09565 1.76239,-0.212562 -0.0485,-0.11691 -3.28269,-6.612702 -7.18708,-14.435095 -5.48407,-10.987277 -7.19835,-14.203375 -7.53617,-14.138318 -0.54997,0.105916 -1.45423,1.741193 -6.77361,12.249516 -9.00525,17.789671 -11.90905,25.514854 -12.2328,32.543744 -0.18238,3.95952 0.25678,6.25888 1.79392,9.39271 2.01319,4.10438 6.33768,7.75429 10.81317,9.12641 2.96947,0.91039 7.32554,0.92641 10.37031,0.0381 z M 72.462914,123.1188 c 7.834547,-0.74429 14.054756,-2.41894 20.488636,-5.51609 10.82927,-5.213 19.62679,-12.76713 36.69566,-31.509273 13.23987,-14.537788 17.16956,-17.599791 24.94635,-19.438093 0.72435,-0.171225 2.27216,-0.827807 3.43958,-1.459071 l 2.12258,-1.147752 9.26042,-0.424472 c 20.2434,-0.9279 20.61189,-0.95274 20.96822,-1.413488 0.67901,-0.877968 0.38243,-1.038617 -2.24895,-1.218181 -1.41883,-0.09682 -3.53219,-0.295387 -4.69636,-0.44126 -2.72192,-0.341062 -10.5957,-1.219723 -15.34583,-1.712492 -6.87427,-0.713121 -6.39134,-0.589589 -7.11347,-1.819616 -0.99431,-1.693636 -2.37717,-2.957249 -4.23984,-3.874238 -1.49685,-0.736895 -1.98194,-0.842431 -3.90905,-0.850453 -1.7286,-0.0072 -2.51203,0.12334 -3.65535,0.60905 -2.99775,1.273515 -4.17389,2.289768 -6.88574,5.949654 -6.52671,8.808404 -16.00886,18.724645 -21.29238,22.267143 -7.22682,4.845443 -15.13936,5.297169 -21.29896,1.215954 C 95.72438,79.703003 92.80958,76.033062 87.13214,66.51427 83.66474,60.700827 80.638721,57.021201 75.88593,52.83894 70.004475,47.663503 65.902771,45.246561 45.988014,35.2215 37.475045,30.936083 29.371213,26.788128 27.979499,26.003822 c -1.391714,-0.784306 -2.684887,-1.426011 -2.873716,-1.426011 -0.241046,0 -0.299624,0.256173 -0.19663,0.859896 0.08068,0.472943 0.223538,1.931458 0.317455,3.241146 0.643138,8.968717 3.561264,19.196048 7.781948,27.273864 7.810633,14.94849 18.692013,25.834591 34.61228,34.627299 1.784354,0.985492 3.315839,1.907589 3.4033,2.049104 0.293581,0.475024 -0.320472,0.749037 -3.492247,1.558368 -11.950801,3.049445 -31.148433,3.441205 -49.854292,1.017365 -4.426746,-0.5736 -9.6544788,-1.433531 -10.3581328,-1.703853 -1.27328,-0.489155 -0.373573,0.706633 2.9567358,3.929743 8.932036,8.644537 18.822103,15.333677 29.494105,19.948327 7.294007,3.15398 15.53063,5.22781 23.283333,5.86231 4.042302,0.33083 4.731056,0.32186 9.409276,-0.12258 z M 202.12131,100.89982 c 0.63469,-0.22393 1.49161,-0.72995 1.90426,-1.124477 1.06862,-1.0217 2.82194,-4.97282 2.82763,-6.372083 0.001,-0.289125 -0.4797,-0.340087 -2.36053,-0.250163 -1.95937,0.09368 -2.62462,0.246789 -3.9026,0.89821 -1.8345,0.935086 -3.09873,2.609526 -3.37842,4.474626 -0.22518,1.501607 0.029,1.861287 1.67335,2.367637 1.59258,0.49042 1.86256,0.49094 3.23631,0.006 z m -5.05622,-38.488763 c 2.05837,-0.0084 1.20375,-0.43127 -1.29385,-0.640221 -1.10739,-0.09264 -2.45992,-0.234598 -3.00563,-0.31545 -0.85324,-0.126419 -0.99218,-0.07582 -0.99218,0.361322 0,0.819841 0.30006,0.927499 2.11666,0.759412 0.94589,-0.08752 2.37464,-0.1618 3.175,-0.165063 z m -2.31959,-3.091284 c 2.70983,-1.423977 4.52426,-3.195349 5.63193,-5.498279 1.15414,-2.399564 1.16332,-2.635376 0.0942,-2.421552 -3.09067,0.618133 -5.78552,2.880737 -7.49071,6.2892 -1.49401,2.986353 -1.24799,3.213695 1.76458,1.630631 z m -4.03041,0.157614 c 0,-1.62244 -1.54852,-5.383003 -2.94889,-7.161342 -0.9216,-1.170342 -3.55048,-2.968226 -4.05633,-2.774113 -0.30688,0.117762 -0.30292,0.399591 0.0254,1.806935 0.73837,3.165119 2.28115,5.558881 4.93439,7.656146 1.45917,1.153406 2.04544,1.2888 2.04544,0.472374 z"
       id="path1" /></g></svg>
